<mxfile host="app.diagrams.net" agent="Mozilla/5.0 (Windows NT 10.0; Win64; x64) AppleWebKit/537.36 (KHTML, like Gecko) Chrome/134.0.0.0 Safari/537.36" version="26.2.4">
  <diagram id="C5RBs43oDa-KdzZeNtuy" name="Page-1">
    <mxGraphModel dx="1428" dy="777" grid="1" gridSize="10" guides="1" tooltips="1" connect="1" arrows="1" fold="1" page="1" pageScale="1" pageWidth="827" pageHeight="1169" math="0" shadow="0">
      <root>
        <mxCell id="WIyWlLk6GJQsqaUBKTNV-0" />
        <mxCell id="WIyWlLk6GJQsqaUBKTNV-1" parent="WIyWlLk6GJQsqaUBKTNV-0" />
        <mxCell id="ZZl-_NT54iTQf6mCTK3V-9" value="psi-web" style="shape=tape;whiteSpace=wrap;html=1;" vertex="1" parent="WIyWlLk6GJQsqaUBKTNV-1">
          <mxGeometry x="90" y="272" width="120" height="100" as="geometry" />
        </mxCell>
        <mxCell id="ZZl-_NT54iTQf6mCTK3V-10" value="myQIMA" style="ellipse;shape=cloud;whiteSpace=wrap;html=1;" vertex="1" parent="WIyWlLk6GJQsqaUBKTNV-1">
          <mxGeometry x="100" y="84" width="120" height="80" as="geometry" />
        </mxCell>
        <mxCell id="ZZl-_NT54iTQf6mCTK3V-13" value="public-api" style="rhombus;whiteSpace=wrap;html=1;" vertex="1" parent="WIyWlLk6GJQsqaUBKTNV-1">
          <mxGeometry x="374" y="85" width="80" height="80" as="geometry" />
        </mxCell>
        <mxCell id="ZZl-_NT54iTQf6mCTK3V-14" value="psi-service" style="rounded=1;whiteSpace=wrap;html=1;" vertex="1" parent="WIyWlLk6GJQsqaUBKTNV-1">
          <mxGeometry x="354" y="292" width="120" height="60" as="geometry" />
        </mxCell>
        <mxCell id="ZZl-_NT54iTQf6mCTK3V-30" value="" style="edgeStyle=orthogonalEdgeStyle;rounded=0;orthogonalLoop=1;jettySize=auto;html=1;exitX=0.5;exitY=0;exitDx=0;exitDy=0;exitPerimeter=0;" edge="1" parent="WIyWlLk6GJQsqaUBKTNV-1" source="ZZl-_NT54iTQf6mCTK3V-32" target="ZZl-_NT54iTQf6mCTK3V-31">
          <mxGeometry relative="1" as="geometry">
            <mxPoint x="671" y="442" as="sourcePoint" />
            <mxPoint x="671" y="362" as="targetPoint" />
          </mxGeometry>
        </mxCell>
        <mxCell id="ZZl-_NT54iTQf6mCTK3V-28" value="" style="edgeStyle=orthogonalEdgeStyle;rounded=0;orthogonalLoop=1;jettySize=auto;html=1;entryX=0;entryY=0.5;entryDx=0;entryDy=0;exitX=1.026;exitY=0.545;exitDx=0;exitDy=0;exitPerimeter=0;entryPerimeter=0;" edge="1" parent="WIyWlLk6GJQsqaUBKTNV-1" source="ZZl-_NT54iTQf6mCTK3V-29" target="ZZl-_NT54iTQf6mCTK3V-32">
          <mxGeometry relative="1" as="geometry">
            <mxPoint x="388" y="486" as="sourcePoint" />
            <mxPoint x="554" y="482" as="targetPoint" />
          </mxGeometry>
        </mxCell>
        <mxCell id="ZZl-_NT54iTQf6mCTK3V-29" value="" style="sketch=0;outlineConnect=0;fontColor=#232F3E;gradientColor=none;fillColor=#C925D1;strokeColor=none;dashed=0;verticalLabelPosition=bottom;verticalAlign=top;align=center;html=1;fontSize=12;fontStyle=0;aspect=fixed;pointerEvents=1;shape=mxgraph.aws4.rds_instance;" vertex="1" parent="WIyWlLk6GJQsqaUBKTNV-1">
          <mxGeometry x="376" y="441.5" width="82.5" height="82.5" as="geometry" />
        </mxCell>
        <mxCell id="ZZl-_NT54iTQf6mCTK3V-31" value="" style="sketch=0;outlineConnect=0;fontColor=#232F3E;gradientColor=none;fillColor=#8C4FFF;strokeColor=none;dashed=0;verticalLabelPosition=bottom;verticalAlign=top;align=center;html=1;fontSize=12;fontStyle=0;aspect=fixed;pointerEvents=1;shape=mxgraph.aws4.opensearch_observability;textShadow=0;" vertex="1" parent="WIyWlLk6GJQsqaUBKTNV-1">
          <mxGeometry x="632" y="286" width="78" height="78" as="geometry" />
        </mxCell>
        <mxCell id="ZZl-_NT54iTQf6mCTK3V-32" value="" style="sketch=0;points=[[0,0,0],[0.25,0,0],[0.5,0,0],[0.75,0,0],[1,0,0],[0,1,0],[0.25,1,0],[0.5,1,0],[0.75,1,0],[1,1,0],[0,0.25,0],[0,0.5,0],[0,0.75,0],[1,0.25,0],[1,0.5,0],[1,0.75,0]];outlineConnect=0;fontColor=#232F3E;fillColor=#01A88D;strokeColor=#ffffff;dashed=0;verticalLabelPosition=bottom;verticalAlign=top;align=center;html=1;fontSize=12;fontStyle=0;aspect=fixed;shape=mxgraph.aws4.resourceIcon;resIcon=mxgraph.aws4.datasync;" vertex="1" parent="WIyWlLk6GJQsqaUBKTNV-1">
          <mxGeometry x="632" y="447" width="78" height="78" as="geometry" />
        </mxCell>
        <mxCell id="ZZl-_NT54iTQf6mCTK3V-34" value="" style="shape=flexArrow;endArrow=classic;startArrow=classic;html=1;rounded=0;" edge="1" parent="WIyWlLk6GJQsqaUBKTNV-1" target="ZZl-_NT54iTQf6mCTK3V-31">
          <mxGeometry width="100" height="100" relative="1" as="geometry">
            <mxPoint x="474" y="327" as="sourcePoint" />
            <mxPoint x="574" y="227" as="targetPoint" />
          </mxGeometry>
        </mxCell>
        <mxCell id="ZZl-_NT54iTQf6mCTK3V-35" value="Request" style="edgeLabel;html=1;align=center;verticalAlign=middle;resizable=0;points=[];" vertex="1" connectable="0" parent="ZZl-_NT54iTQf6mCTK3V-34">
          <mxGeometry x="-0.1142" y="-1" relative="1" as="geometry">
            <mxPoint as="offset" />
          </mxGeometry>
        </mxCell>
        <mxCell id="ZZl-_NT54iTQf6mCTK3V-36" value="" style="shape=flexArrow;endArrow=classic;startArrow=classic;html=1;rounded=0;entryX=0;entryY=0.5;entryDx=0;entryDy=0;" edge="1" parent="WIyWlLk6GJQsqaUBKTNV-1" source="ZZl-_NT54iTQf6mCTK3V-9" target="ZZl-_NT54iTQf6mCTK3V-14">
          <mxGeometry width="100" height="100" relative="1" as="geometry">
            <mxPoint x="210" y="324" as="sourcePoint" />
            <mxPoint x="368" y="320" as="targetPoint" />
          </mxGeometry>
        </mxCell>
        <mxCell id="ZZl-_NT54iTQf6mCTK3V-37" value="Request" style="edgeLabel;html=1;align=center;verticalAlign=middle;resizable=0;points=[];" vertex="1" connectable="0" parent="ZZl-_NT54iTQf6mCTK3V-36">
          <mxGeometry x="-0.1142" y="-1" relative="1" as="geometry">
            <mxPoint as="offset" />
          </mxGeometry>
        </mxCell>
        <mxCell id="ZZl-_NT54iTQf6mCTK3V-38" value="" style="shape=flexArrow;endArrow=classic;startArrow=classic;html=1;rounded=0;entryX=0.5;entryY=0;entryDx=0;entryDy=0;" edge="1" parent="WIyWlLk6GJQsqaUBKTNV-1" source="ZZl-_NT54iTQf6mCTK3V-13" target="ZZl-_NT54iTQf6mCTK3V-14">
          <mxGeometry width="100" height="100" relative="1" as="geometry">
            <mxPoint x="414" y="174" as="sourcePoint" />
            <mxPoint x="572" y="170" as="targetPoint" />
          </mxGeometry>
        </mxCell>
        <mxCell id="ZZl-_NT54iTQf6mCTK3V-39" value="Request" style="edgeLabel;html=1;align=center;verticalAlign=middle;resizable=0;points=[];" vertex="1" connectable="0" parent="ZZl-_NT54iTQf6mCTK3V-38">
          <mxGeometry x="-0.1142" y="-1" relative="1" as="geometry">
            <mxPoint as="offset" />
          </mxGeometry>
        </mxCell>
        <mxCell id="ZZl-_NT54iTQf6mCTK3V-40" value="" style="shape=flexArrow;endArrow=classic;startArrow=classic;html=1;rounded=0;entryX=0;entryY=0.5;entryDx=0;entryDy=0;exitX=0.933;exitY=0.513;exitDx=0;exitDy=0;exitPerimeter=0;" edge="1" parent="WIyWlLk6GJQsqaUBKTNV-1" source="ZZl-_NT54iTQf6mCTK3V-10" target="ZZl-_NT54iTQf6mCTK3V-13">
          <mxGeometry width="100" height="100" relative="1" as="geometry">
            <mxPoint x="220" y="124.5" as="sourcePoint" />
            <mxPoint x="364" y="124.5" as="targetPoint" />
          </mxGeometry>
        </mxCell>
        <mxCell id="ZZl-_NT54iTQf6mCTK3V-41" value="Request" style="edgeLabel;html=1;align=center;verticalAlign=middle;resizable=0;points=[];" vertex="1" connectable="0" parent="ZZl-_NT54iTQf6mCTK3V-40">
          <mxGeometry x="-0.1142" y="-1" relative="1" as="geometry">
            <mxPoint as="offset" />
          </mxGeometry>
        </mxCell>
      </root>
    </mxGraphModel>
  </diagram>
</mxfile>
